# xmcd
#
# Track frame offsets:
#	150
#	8421
#	16813
#	28941
#	40582
#	53618
#	64943
#	75837
#	85565
#	95051
#	103629
#	112395
#
# Disc length: 1628 seconds
#
# Revision: 1
# Processed by: cddbd v1.5.2PL0 Copyright (c) Steve Scherf et al.
# Submitted via: audiograbber 1.83.01
#
DISCID=83065a0c
DTITLE=Johnny Cash - The Original Sun Sound Of Johnny Cash
DYEAR=2013
DGENRE=Country
TTITLE0=Always Alone
TTITLE1=Country Boy
TTITLE2=Goodnight Irene
TTITLE3=Wide Open Road
TTITLE4=Thanks A Lot
TTITLE5=Big River
TTITLE6=Belshazah
TTITLE7=Born To Lose
TTITLE8=New Mexico
TTITLE9=I Forgot To Remember To Forget
TTITLE10=Two Timin' Woman
TTITLE11=The Story Of A Broken Heart
EXTD=
EXTT0=
EXTT1=
EXTT2=
EXTT3=
EXTT4=
EXTT5=
EXTT6=
EXTT7=
EXTT8=
EXTT9=
EXTT10=
EXTT11=
PLAYORDER=
